# xmcd
#
# Track frame offsets: 
#        150
#        11600
#        23910
#        40045
#        50980
#        65045
#        77225
#        86235
#        98835
#        111445
#        124515
#        136050
#        148050
#        159285
#        171885
#        189625
#        203745
#        216795
#        232695
#        247545
#        262745
#        277520
#        294030
#        303125
#        317450
#        326535
#        335855
#
# Disc length: 4597 seconds
#
# Revision: 0
# Processed by: cddbd v1.5.2PL0 Copyright (c) Steve Scherf et al.
# Submitted via: ExactAudioCopy v1.1
#
DISCID=6b11f31b
DTITLE=Various Artist - 100 Country Hits [CD1]
DYEAR=2008
DGENRE=Country
TTITLE0=Johnny Cash - Ring Of Fire
TTITLE1=Dolly Parton - 9 To 5
TTITLE2=The Charlie Daniels Band - The Devil Went Down To Georgia
TTITLE3=Jerry Reed Band - Guitar Man
TTITLE4=Glen Campbell - Rhinestone Cowboy
TTITLE5=Johnny Cash With June Carter - Jackson
TTITLE6=Tammy Wynette - Your Good Girls Gonna Go Bad
TTITLE7=Lynn Anderson - Rose Garden
TTITLE8=Billy Jo Spears - '57 Chevrolet
TTITLE9=Dr. Hook - When You're In Love With A Beautiful Woman
TTITLE10=Roy Orbison - Dream Baby (How Long Must I Dream)
TTITLE11=Charlie Rich - The Most Beautiful Girl
TTITLE12=Crystal Gayle - Don't It Make My Brown Eyes Blue
TTITLE13=Kenny Rogers - Ruby Don't Take Your Love To Town
TTITLE14=Billy Swan - I Can Help
TTITLE15=Eddie Rabbitt - I Love A Rainy Night
TTITLE16=Hal Ketchum - Small Town Saturday Night
TTITLE17=Alabama - Feels So Right
TTITLE18=Guy Clark - Like A Coat From The Cold
TTITLE19=Juice Newton - Queen Of Hearts
TTITLE20=Asleep At The Wheel - Lay Down Sally
TTITLE21=Mary Chapin Carpenter - Shut Up And Kiss Me
TTITLE22=Johnnie Allan - The Promised Land
TTITLE23=Hayseed Dixie - Dueling Banjos
TTITLE24=Flatt and Scruggs - Ballad Of Jed Clampett
TTITLE25=Waylon Jennings - Good Ol' Boys (Theme From Dukes Of Hazard)
TTITLE26=The Everly Brothers - Wake Up Little Suzie
EXTD=
EXTT0=
EXTT1=
EXTT2=
EXTT3=
EXTT4=
EXTT5=
EXTT6=
EXTT7=
EXTT8=
EXTT9=
EXTT10=
EXTT11=
EXTT12=
EXTT13=
EXTT14=
EXTT15=
EXTT16=
EXTT17=
EXTT18=
EXTT19=
EXTT20=
EXTT21=
EXTT22=
EXTT23=
EXTT24=
EXTT25=
EXTT26=
PLAYORDER=
